Coordinates
version=1
nRows=9
nColumns=36
inDegrees=yes

Units are S.I. units (second, meters, Newtons, ...)
If the header above contains a line with 'inDegrees', this indicates whether rotational values are in degrees (yes) or radians (no).

endheader
time	pelvis_tilt	pelvis_list	pelvis_rotation	pelvis_tx	pelvis_ty	pelvis_tz	hip_flexion_r	hip_adduction_r	hip_rotation_r	knee_angle_r	knee_angle_r_beta	ankle_angle_r	subtalar_angle_r	mtp_angle_r	hip_flexion_l	hip_adduction_l	hip_rotation_l	knee_angle_l	knee_angle_l_beta	ankle_angle_l	subtalar_angle_l	mtp_angle_l	lumbar_extension	lumbar_bending	lumbar_rotation	arm_flex_r	arm_add_r	arm_rot_r	elbow_flex_r	pro_sup_r	arm_flex_l	arm_add_l	arm_rot_l	elbow_flex_l	pro_sup_l
      5.35000000	     -7.86091474	      1.01908705	      3.63459579	      0.84158640	      1.13202578	      0.01973194	     11.51711133	     -6.19284065	     -8.13041602	      4.60849073	      0.08043334	    -29.43659261	      7.77054809	     -7.49999987	     11.31243434	     -6.32456987	     -3.97293960	      4.88960015	      0.08533962	    -27.66424137	      5.40404300	     -7.49999987	     -5.40695815	      0.96458530	     -5.75715397	    -47.82877523	    -14.74878272	    -14.66802566	     61.56576272	     73.31898870	    -49.70400001	     -5.64107763	     24.53081092	     22.38251391	     60.88474403
      5.36666670	     -7.79918550	      0.94074616	      3.94440105	      0.84130156	      1.16505199	      0.01960937	     10.92997765	     -5.84846717	     -9.14342089	      3.41240924	      0.05955778	    -31.27581079	      7.87493217	     -7.49999987	     10.60820736	     -6.03518556	     -5.07511776	      3.08615494	      0.05386356	    -29.54620813	      6.35731087	     -7.49999987	     -4.12054053	      0.91814287	     -7.03625906	    -49.31068149	    -14.08563930	    -17.82249961	     71.90511496	     79.28590922	    -53.37786950	     -2.96646526	     13.52419128	     28.40225638	     62.53816883
      5.38333330	     -7.82374655	      1.02804375	      4.16253426	      0.83792972	      1.20116172	      0.01970959	     10.96491459	     -5.86040226	     -9.65663297	      3.28727021	      0.05737369	    -32.36632905	      7.22624798	     -7.49999987	     10.58414207	     -5.57593134	     -5.50115951	      2.71781354	      0.04743479	    -31.09862105	      6.64598301	     -7.49999987	     -3.27331660	      1.02140207	     -7.84742473	    -50.94853300	    -11.78130606	    -20.03934410	     78.44957730	     78.67044689	    -54.24693073	     -1.08899373	      8.70466675	     33.05783788	     63.07669455
      5.40000000	     -7.86163462	      1.00669506	      4.07397465	      0.83432317	      1.22077184	      0.02130195	     11.39965521	     -5.71886068	    -10.04448973	      3.49029018	      0.06091706	    -33.46286561	      5.77824307	     -7.49999987	     10.85097534	     -5.34856079	     -6.21519677	      2.99608936	      0.05229162	    -32.59631582	      6.32735818	     -7.49999987	     -3.09392389	      1.05011053	     -8.80515758	    -52.21772210	    -10.31133296	    -20.05844072	     81.56564638	     80.61465736	    -54.45394276	      1.38563114	      3.41331519	     36.39993950	     64.59153271
      5.41666670	     -8.03680677	      0.90307482	      4.19752089	      0.83396332	      1.24213556	      0.02167036	     11.95917498	     -5.53572261	    -10.54108443	      3.93437802	      0.06866785	    -32.92638253	      4.91505535	     -7.49999987	     11.16846840	     -5.16864196	     -6.92002508	      3.00751186	      0.05249098	    -32.87139649	      6.04744277	     -7.49999987	     -3.27735304	      1.36346765	     -9.48872018	    -52.99322068	     -9.11488418	    -19.40665517	     81.39644947	     80.68770739	    -53.05655109	      2.50023653	      3.44379809	     37.62534588	     64.68891724
      5.43333330	     -8.37417636	      0.79055981	      4.03802024	      0.83241174	      1.25864824	      0.02329820	     12.99166484	     -5.24934291	    -10.33453562	      4.39629735	      0.07672986	    -32.09203196	      3.64658783	     -7.49999987	     11.83320802	     -5.17278428	     -7.28376721	      3.26219675	      0.05693607	    -31.67923265	      5.78560481	     -7.49999987	     -3.64442150	      1.48338343	     -9.20545133	    -52.15479041	     -8.44481322	    -18.20239405	     77.31448501	     80.90052526	    -51.99953671	      2.82255161	      3.61623898	     40.10370878	     64.94808028
      5.45000000	     -8.65305068	      0.67024882	      3.83960640	      0.83097959	      1.26751505	      0.02443147	     13.70684212	     -4.88159862	    -10.09450544	      4.59634124	      0.08022129	    -30.18367162	      3.04427039	     -7.49999987	     12.75268505	     -5.27112128	     -7.47493083	      3.57229847	      0.06234837	    -28.84288330	      5.31655726	     -7.49999987	     -4.67908508	      1.47098926	     -8.15327025	    -50.44919547	     -8.54619482	    -16.13159009	     71.05878004	     81.01225363	    -50.36865722	      2.32644284	      4.93070517	     41.59351621	     65.27415949
      5.46666670	     -8.70442992	      0.67551214	      4.19437089	      0.82898160	      1.28640032	      0.02432772	     14.21039158	     -4.88065336	     -9.80910755	      5.03714574	      0.08791478	    -27.00457787	      2.98380475	     -7.49999987	     13.48076098	     -5.10172808	     -7.93327354	      3.41007329	      0.05951701	    -25.47577275	      4.86721301	     -7.49999987	     -4.99831137	      1.24827220	     -8.65798899	    -49.74186312	     -8.26545310	    -14.45332500	     67.86547931	     79.03467786	    -48.61276489	      2.17180580	      7.21562680	     39.04921382	     64.85552511
      5.48333330	     -9.26702364	      0.62949819	      4.32762399	      0.82614562	      1.29569666	      0.02567689	     15.44319568	     -4.96281206	     -9.73397928	      5.13807457	      0.08967632	    -24.39500839	      3.20726114	     -7.49999987	     14.62491405	     -5.11155819	     -8.58501087	      3.03599808	      0.05298816	    -22.24961818	      4.38796223	     -7.49999987	     -4.94861336	      1.12055532	     -8.64378759	    -47.79191133	     -8.50376429	    -10.99648361	     61.62185081	     78.45908593	    -45.95877102	      1.26635337	     11.79860028	     35.63794167	     64.52205254
